<svg width="100" height="63" viewBox="0 0 100 63" fill="none" xmlns="http://www.w3.org/2000/svg">
<path d="M8.50378 28.75V11.4365C8.50378 11.4365 34.7824 4.51757 24.8549 23.4292C14.9274 42.341 29.5266 44.1861 34.7822 42.341C40.038 40.496 38.2861 23.4292 40.038 23.4292C41.7899 23.4292 42.9579 34.4995 45.2937 34.4996C47.6296 34.4996 48.2135 11.4365 51.1334 11.4365C54.0532 11.4365 48.7975 31.732 59.8929 38.1896C70.9882 44.6474 81.4996 42.8023 85.0035 40.0348C88.5072 37.2671 95.7589 29.0634 90.8431 19.7392C85.9274 10.415 63.9806 4.51758 63.9806 32.1932C63.9806 59.869 8.50378 58.3905 8.50378 36.25" stroke="url(#paint0_linear_11_303)" stroke-width="6"/>
<path d="M8.75 35C10.1307 35 11.25 33.8807 11.25 32.5C11.25 31.1193 10.1307 30 8.75 30C7.36929 30 6.25 31.1193 6.25 32.5C6.25 33.8807 7.36929 35 8.75 35Z" fill="#881337"/>
<defs>
<linearGradient id="paint0_linear_11_303" x1="8.50378" y1="31.5582" x2="92.4999" y2="31.5582" gradientUnits="userSpaceOnUse">
<stop stop-color="#06B6D4"/>
<stop offset="1" stop-color="#881337"/>
</linearGradient>
</defs>
</svg>
